<?xml version="1.0" encoding="UTF-8" standalone="no"?>
<!-- Created with Inkscape (http://www.inkscape.org/) -->

<svg
   xmlns:dc="http://purl.org/dc/elements/1.1/"
   xmlns:cc="http://creativecommons.org/ns#"
   xmlns:rdf="http://www.w3.org/1999/02/22-rdf-syntax-ns#"
   xmlns:svg="http://www.w3.org/2000/svg"
   xmlns="http://www.w3.org/2000/svg"
   xmlns:sodipodi="http://sodipodi.sourceforge.net/DTD/sodipodi-0.dtd"
   xmlns:inkscape="http://www.inkscape.org/namespaces/inkscape"
   width="616.27679"
   height="608.83026"
   id="svg4057"
   version="1.1"
   inkscape:version="0.48.5 r10040"
   sodipodi:docname="/usr/local/share/icons/python_0.svg">
  <defs
     id="defs4059" />
  <sodipodi:namedview
     id="base"
     pagecolor="#ffffff"
     bordercolor="#666666"
     borderopacity="1.0"
     inkscape:pageopacity="0.0"
     inkscape:pageshadow="2"
     inkscape:zoom="0.35"
     inkscape:cx="277.42411"
     inkscape:cy="632.98657"
     inkscape:document-units="px"
     inkscape:current-layer="layer1"
     showgrid="false"
     fit-margin-top="0"
     fit-margin-left="0"
     fit-margin-right="0"
     fit-margin-bottom="0"
     inkscape:window-width="497"
     inkscape:window-height="391"
     inkscape:window-x="277"
     inkscape:window-y="276"
     inkscape:window-maximized="0" />
  <metadata
     id="metadata4062">
    <rdf:RDF>
      <cc:Work
         rdf:about="">
        <dc:format>image/svg+xml</dc:format>
        <dc:type
           rdf:resource="http://purl.org/dc/dcmitype/StillImage" />
        <dc:title></dc:title>
      </cc:Work>
    </rdf:RDF>
  </metadata>
  <g
     inkscape:label="Layer 1"
     inkscape:groupmode="layer"
     id="layer1"
     transform="translate(-97.575886,-556.51849)">
    <path
       style="fill:#ffdf5a;fill-opacity:1;stroke:none"
       d="m 713.85269,1027.0994 0,-251.43753 -151.4107,79.99995 -25.7143,171.43758 z m -34.2813,-45.71878 -40,0 0,-42.875 40,0 z"
       id="path3921"
       inkscape:connector-curvature="0"
       sodipodi:nodetypes="cccccccccc" />
    <rect
       style="fill:#ffdf5a;fill-opacity:1;stroke:none"
       id="rect3923"
       width="97.14286"
       height="142.85715"
       x="-648.14734"
       y="-1164.2328"
       transform="scale(-1,-1)" />
    <rect
       style="fill:#ffdf5a;fill-opacity:1;stroke:none"
       id="rect3925"
       width="340"
       height="85.714287"
       x="-642.43298"
       y="-1164.2328"
       transform="scale(-1,-1)" />
    <rect
       style="fill:#ffdf5a;fill-opacity:1;stroke:none"
       id="rect3927"
       width="85.714287"
       height="601.21826"
       x="-385.29016"
       y="-1158.5186"
       transform="scale(-1,-1)" />
    <rect
       style="fill:#ffdf5a;fill-opacity:1;stroke:none"
       id="rect3929"
       width="17.142857"
       height="180"
       x="-205.5153"
       y="-1103.7067"
       transform="matrix(-0.9113706,0.41158672,-0.41158672,-0.9113706,0,0)" />
    <path
       style="fill:#4281b2;fill-opacity:1;stroke:none"
       d="m 659.57589,980.78242 9.4062,-20.8438 -9.4062,-20.8125 -9.4062,20.8125 9.4062,20.8438 z"
       id="path3931"
       inkscape:connector-curvature="0" />
    <rect
       transform="matrix(-0.93547209,-0.35340057,0.35340057,-0.93547209,0,0)"
       y="-545.96265"
       x="-832.90692"
       height="49.989456"
       width="15.831431"
       id="rect3933"
       style="fill:#ffdf5a;fill-opacity:1;stroke:none" />
    <path
       sodipodi:nodetypes="cccccccccc"
       inkscape:connector-curvature="0"
       id="path3935"
       d="m 97.575886,693.65181 0,251.43751 151.410704,-80 25.7143,-171.43751 z m 34.281304,45.71875 40,0 0,42.875 -40,0 z"
       style="fill:#4281b2;fill-opacity:1;stroke:none" />
    <rect
       y="556.51849"
       x="163.28113"
       height="142.85715"
       width="97.14286"
       id="rect3937"
       style="fill:#4281b2;fill-opacity:1;stroke:none" />
    <rect
       y="556.51849"
       x="168.99548"
       height="85.714287"
       width="340"
       id="rect3939"
       style="fill:#4281b2;fill-opacity:1;stroke:none" />
    <rect
       y="562.23273"
       x="426.13831"
       height="603.11603"
       width="85.714287"
       id="rect3941"
       style="fill:#4281b2;fill-opacity:1;stroke:none" />
    <rect
       transform="matrix(0.9113706,-0.41158672,0.41158672,0.9113706,0,0)"
       y="798.50726"
       x="-174.24593"
       height="180"
       width="17.142857"
       id="rect3943"
       style="fill:#4281b2;fill-opacity:1;stroke:none" />
    <path
       inkscape:connector-curvature="0"
       id="path3945"
       d="m 151.85269,739.96877 -9.4062,20.84375 9.4062,20.8125 9.4062,-20.8125 -9.4062,-20.84375 z"
       style="fill:#ffdf5a;fill-opacity:1;stroke:none" />
    <rect
       style="fill:#4281b2;fill-opacity:1;stroke:none"
       id="rect3947"
       width="15.831431"
       height="49.989456"
       x="534.27557"
       y="776.99536"
       transform="matrix(0.93547209,0.35340057,-0.35340057,0.93547209,0,0)" />
  </g>
</svg>
